HIERARCHY
ROOT Hips
{
	OFFSET 0.143595 90.288700 1.759430
	CHANNELS 6 Xposition Yposition Zposition Zrotation Yrotation Xrotation 
	JOINT Spine
	{
		OFFSET 0.000000 9.923500 -1.227300
		CHANNELS 3 Zrotation Yrotation Xrotation
		JOINT Spine1
		{
			OFFSET -0.000100 11.645400 -1.422300
			CHANNELS 3 Zrotation Yrotation Xrotation
			JOINT Spine2
			{
				OFFSET 0.000100 13.360200 -1.626500
				CHANNELS 3 Zrotation Yrotation Xrotation
				JOINT Neck
				{
					OFFSET 0.000000 15.032500 0.792900
					CHANNELS 3 Zrotation Yrotation Xrotation
					JOINT Head
					{
						OFFSET 0.000000 10.321800 3.142400
						CHANNELS 3 Zrotation Yrotation Xrotation
						JOINT HeadTop_End
						{
							OFFSET 0.000200 18.474700 6.636400
							CHANNELS 3 Zrotation Yrotation Xrotation
							End Site
							{
								OFFSET 0.000000 0.000000 0.000000
							}
						}
						JOINT LeftEye
						{
							OFFSET 2.947900 7.681700 9.120700
							CHANNELS 3 Zrotation Yrotation Xrotation
							End Site
							{
								OFFSET 0.000000 0.000000 0.000000
							}
						}
						JOINT RightEye
						{
							OFFSET -2.944500 7.681700 9.120500
							CHANNELS 3 Zrotation Yrotation Xrotation
							End Site
							{
								OFFSET 0.000000 0.000000 0.000000
							}
						}
					}
				}
				JOINT LeftShoulder
				{
					OFFSET 6.105800 9.110400 0.705600
					CHANNELS 3 Zrotation Yrotation Xrotation
					JOINT LeftArm
					{
						OFFSET 12.655000 -0.265900 -2.600900
						CHANNELS 3 Zrotation Yrotation Xrotation
						JOINT LeftForeArm
						{
							OFFSET 27.404700 0.000000 0.000000
							CHANNELS 3 Zrotation Yrotation Xrotation
							JOINT LeftHand
							{
								OFFSET 27.614500 0.000000 0.000000
								CHANNELS 3 Zrotation Yrotation Xrotation
								JOINT LeftHandMiddle1
								{
									OFFSET 12.775500 0.000000 0.000000
									CHANNELS 3 Zrotation Yrotation Xrotation
									JOINT LeftHandMiddle2
									{
										OFFSET 3.614000 0.000000 0.000000
										CHANNELS 3 Zrotation Yrotation Xrotation
										JOINT LeftHandMiddle3
										{
											OFFSET 3.459800 0.000000 0.000000
											CHANNELS 3 Zrotation Yrotation Xrotation
											End Site
											{
												OFFSET 0.000000 0.000000 0.000000
											}
										}
									}
								}
								JOINT LeftHandThumb1
								{
									OFFSET 3.788800 -2.167000 3.003100
									CHANNELS 3 Zrotation Yrotation Xrotation
									JOINT LeftHandThumb2
									{
										OFFSET 3.675400 -2.122000 2.122000
										CHANNELS 3 Zrotation Yrotation Xrotation
										JOINT LeftHandThumb3
										{
											OFFSET 3.394400 -1.959700 1.959800
											CHANNELS 3 Zrotation Yrotation Xrotation
											End Site
											{
												OFFSET 0.000000 0.000000 0.000000
											}
										}
									}
								}
								JOINT LeftHandIndex1
								{
									OFFSET 12.266600 -0.231700 2.822100
									CHANNELS 3 Zrotation Yrotation Xrotation
									JOINT LeftHandIndex2
									{
										OFFSET 3.892000 0.000000 0.000000
										CHANNELS 3 Zrotation Yrotation Xrotation
										JOINT LeftHandIndex3
										{
											OFFSET 3.415200 0.000000 0.000000
											CHANNELS 3 Zrotation Yrotation Xrotation
											End Site
											{
												OFFSET 0.000000 0.000000 0.000000
											}
										}
									}
								}
								JOINT LeftHandRing1
								{
									OFFSET 12.147000 0.009900 -2.216600
									CHANNELS 3 Zrotation Yrotation Xrotation
									JOINT LeftHandRing2
									{
										OFFSET 3.601200 0.000000 0.000000
										CHANNELS 3 Zrotation Yrotation Xrotation
										JOINT LeftHandRing3
										{
											OFFSET 3.307300 0.000000 0.000000
											CHANNELS 3 Zrotation Yrotation Xrotation
											End Site
											{
												OFFSET 0.000000 0.000000 0.000000
											}
										}
									}
								}
								JOINT LeftHandPinky1
								{
									OFFSET 10.908200 -0.226400 -4.725800
									CHANNELS 3 Zrotation Yrotation Xrotation
									JOINT LeftHandPinky2
									{
										OFFSET 4.136700 0.000000 0.000000
										CHANNELS 3 Zrotation Yrotation Xrotation
										JOINT LeftHandPinky3
										{
											OFFSET 2.594800 0.000000 0.000000
											CHANNELS 3 Zrotation Yrotation Xrotation
											End Site
											{
												OFFSET 0.000000 0.000000 0.000000
											}
										}
									}
								}
							}
						}
					}
				}
				JOINT RightShoulder
				{
					OFFSET -6.105700 9.110500 0.705600
					CHANNELS 3 Zrotation Yrotation Xrotation
					JOINT RightArm
					{
						OFFSET -12.655000 -0.266000 -2.600900
						CHANNELS 3 Zrotation Yrotation Xrotation
						JOINT RightForeArm
						{
							OFFSET -27.404700 0.000000 0.000000
							CHANNELS 3 Zrotation Yrotation Xrotation
							JOINT RightHand
							{
								OFFSET -27.614500 0.000000 0.000000
								CHANNELS 3 Zrotation Yrotation Xrotation
								JOINT RightHandMiddle1
								{
									OFFSET -12.775500 0.000000 0.000000
									CHANNELS 3 Zrotation Yrotation Xrotation
									JOINT RightHandMiddle2
									{
										OFFSET -3.614000 0.000000 0.000000
										CHANNELS 3 Zrotation Yrotation Xrotation
										JOINT RightHandMiddle3
										{
											OFFSET -3.459800 0.000000 0.000000
											CHANNELS 3 Zrotation Yrotation Xrotation
											End Site
											{
												OFFSET 0.000000 0.000000 0.000000
											}
										}
									}
								}
								JOINT RightHandThumb1
								{
									OFFSET -3.788800 -2.167000 3.003100
									CHANNELS 3 Zrotation Yrotation Xrotation
									JOINT RightHandThumb2
									{
										OFFSET -3.675400 -2.122000 2.122000
										CHANNELS 3 Zrotation Yrotation Xrotation
										JOINT RightHandThumb3
										{
											OFFSET -3.394400 -1.959700 1.959800
											CHANNELS 3 Zrotation Yrotation Xrotation
											End Site
											{
												OFFSET 0.000000 0.000000 0.000000
											}
										}
									}
								}
								JOINT RightHandIndex1
								{
									OFFSET -12.266600 -0.231700 2.822100
									CHANNELS 3 Zrotation Yrotation Xrotation
									JOINT RightHandIndex2
									{
										OFFSET -3.892000 0.000000 0.000000
										CHANNELS 3 Zrotation Yrotation Xrotation
										JOINT RightHandIndex3
										{
											OFFSET -3.415200 0.000000 0.000000
											CHANNELS 3 Zrotation Yrotation Xrotation
											End Site
											{
												OFFSET 0.000000 0.000000 0.000000
											}
										}
									}
								}
								JOINT RightHandRing1
								{
									OFFSET -12.147000 0.009900 -2.216600
									CHANNELS 3 Zrotation Yrotation Xrotation
									JOINT RightHandRing2
									{
										OFFSET -3.601200 0.000000 0.000000
										CHANNELS 3 Zrotation Yrotation Xrotation
										JOINT RightHandRing3
										{
											OFFSET -3.307300 0.000000 0.000000
											CHANNELS 3 Zrotation Yrotation Xrotation
											End Site
											{
												OFFSET 0.000000 0.000000 0.000000
											}
										}
									}
								}
								JOINT RightHandPinky1
								{
									OFFSET -10.908200 -0.226400 -4.725800
									CHANNELS 3 Zrotation Yrotation Xrotation
									JOINT RightHandPinky2
									{
										OFFSET -4.136700 0.000000 0.000000
										CHANNELS 3 Zrotation Yrotation Xrotation
										JOINT RightHandPinky3
										{
											OFFSET -2.594800 0.000000 0.000000
											CHANNELS 3 Zrotation Yrotation Xrotation
											End Site
											{
												OFFSET 0.000000 0.000000 0.000000
											}
										}
									}
								}
							}
						}
					}
				}
			}
		}
	}
	JOINT RightUpLeg
	{
		OFFSET -9.124500 -6.656400 -0.055400
		CHANNELS 3 Zrotation Yrotation Xrotation
		JOINT RightLeg
		{
			OFFSET -0.244700 -40.595400 -0.514500
			CHANNELS 3 Zrotation Yrotation Xrotation
			JOINT RightFoot
			{
				OFFSET 0.244700 -42.047900 -2.060200
				CHANNELS 3 Zrotation Yrotation Xrotation
				JOINT RightToeBase
				{
					OFFSET -0.373400 -10.492200 12.640700
					CHANNELS 3 Zrotation Yrotation Xrotation
					End Site
					{
						OFFSET 0.000000 0.000000 0.000000
					}
				}
			}
		}
	}
	JOINT LeftUpLeg
	{
		OFFSET 9.124500 -6.656400 -0.055400
		CHANNELS 3 Zrotation Yrotation Xrotation
		JOINT LeftLeg
		{
			OFFSET 0.244700 -40.595400 -0.517000
			CHANNELS 3 Zrotation Yrotation Xrotation
			JOINT LeftFoot
			{
				OFFSET -0.244700 -42.048000 -2.057600
				CHANNELS 3 Zrotation Yrotation Xrotation
				JOINT LeftToeBase
				{
					OFFSET 0.373400 -10.492200 12.640700
					CHANNELS 3 Zrotation Yrotation Xrotation
					End Site
					{
						OFFSET 0.000000 0.000000 0.000000
					}
				}
			}
		}
	}
}
MOTION
Frames: 4
Frame Time: 0.016667
0.143595 90.288700 1.759430 5.334320 5.381278 31.906889 3.750747 2.266720 14.167617 2.097015 1.440772 10.443239 2.107134 1.317174 10.454293 -0.177505 -1.293597 -13.120504 -3.585729 -8.024701 -35.423680 -0.000000 0.000000 0.000000 -0.000000 0.000000 0.000000 -0.000000 0.000000 0.000000 -11.546863 -5.848443 1.748896 -59.755844 -0.710901 -18.049337 -0.000002 -39.997900 0.000009 -8.811722 -7.757429 -13.670401 -52.380689 6.121856 -4.104778 -94.512877 5.830090 -6.307457 -56.636215 4.889427 -2.635808 -8.244156 -5.919573 8.128173 8.533087 30.870655 11.680736 22.954973 33.072955 9.483459 -60.104161 3.167280 -0.145892 -94.512875 5.830081 -6.307447 -56.636216 4.889427 -2.635818 -55.336922 8.070250 -4.421423 -94.566185 5.829652 -6.312860 -56.624702 4.888781 -2.634832 -61.549249 11.888494 -13.880908 -94.512874 5.830081 -6.307437 -94.512875 5.830081 -6.307447 12.485226 11.130162 2.860486 49.273375 28.216056 -11.964595 0.000007 68.162100 0.000014 -17.014676 20.962429 30.010225 37.798114 -1.846509 -2.332962 75.256557 -4.501611 -3.470950 75.256353 -4.501581 -3.470930 4.768938 -0.435480 -7.104696 -5.999638 -22.067830 9.059794 -19.600444 -26.330352 5.855670 41.778853 3.471273 12.517437 75.492508 -4.506394 -3.489491 75.278923 -4.502062 -3.472718 50.816494 -8.215481 -3.447330 75.362242 -4.503778 -3.479257 75.240032 -4.501238 -3.469655 76.095036 -13.003565 -18.470585 75.277511 -4.502023 -3.472598 75.277512 -4.502033 -3.472598 8.048350 -8.827740 -59.885008 1.023152 7.619555 52.493394 4.072099 -19.314777 -26.610264 -0.000186 0.000019 -0.000138 2.224051 8.364776 -66.356962 8.817614 4.530602 66.915912 -2.245618 2.276124 -9.202654 -0.000002 0.000003 -11.318300 
0.068435 91.470300 5.901460 6.340407 6.061585 31.450824 3.136726 2.387451 13.289046 1.980333 1.537467 9.240266 1.974523 1.428938 9.138266 -0.258120 -1.500149 -12.758847 -5.172637 -7.992765 -30.558673 0.000000 0.000000 -0.000000 0.000000 0.000000 -0.000000 0.000000 0.000000 -0.000000 -11.141679 -5.859167 1.765436 -57.372402 0.536992 -20.005316 -0.000004 -39.765300 -0.000003 -8.122447 -7.997267 -15.960905 -52.072400 6.112439 -4.071908 -93.959951 5.834225 -6.251259 -56.143487 4.861697 -2.593929 -8.068375 -5.929279 7.945721 8.533087 30.870655 11.680736 22.954973 33.072955 9.483459 -59.757331 3.132642 -0.126833 -93.890276 5.834711 -6.244177 -56.085018 4.858380 -2.588988 -55.061929 8.075564 -4.391704 -94.071734 5.833433 -6.262629 -56.181659 4.863853 -2.597169 -61.302711 11.922471 -13.829975 -94.068399 5.833446 -6.262278 -94.111012 5.833150 -6.266607 12.680347 10.884308 2.743603 51.864423 23.598457 -9.636600 0.000030 65.625300 0.000025 -13.580667 18.379788 32.550371 37.515647 -1.823628 -2.309881 74.901619 -4.494206 -3.443109 74.946353 -4.495138 -3.446635 4.768938 -0.435480 -7.104696 -5.999638 -22.067830 9.059794 -19.600444 -26.330352 5.855670 41.428456 3.523032 12.549001 75.089213 -4.498130 -3.457823 74.924693 -4.494697 -3.444937 50.578019 -8.236775 -3.426154 75.007206 -4.496443 -3.451396 74.966401 -4.495560 -3.448201 75.891478 -13.066277 -18.427151 75.003579 -4.496355 -3.451124 75.033903 -4.496982 -3.453495 6.735067 -10.058585 -54.716402 0.480753 7.525889 48.986416 4.198671 -17.628557 -27.393127 -0.000023 0.000010 -0.229868 0.645557 7.279469 -64.786218 2.699866 2.337773 60.016948 -4.695431 8.090465 -6.881800 -0.000004 0.000008 -5.936450 
-0.006722 92.718700 10.527300 7.408401 6.786574 30.696240 2.428292 2.378052 12.291851 1.716993 1.707937 8.011342 1.672912 1.622952 7.898959 -0.474242 -1.666678 -11.801765 -6.030499 -8.238788 -24.722565 0.000000 -0.000000 0.000000 0.000000 -0.000000 0.000000 0.000000 -0.000000 0.000000 -10.066990 -5.956347 1.797900 -54.622683 2.192889 -21.247414 0.000000 -39.714700 0.000002 -7.324075 -7.834307 -18.451740 -51.200885 6.084866 -3.979315 -92.391479 5.843030 -6.091698 -54.741294 4.780803 -2.476080 -7.574157 -5.954634 7.431603 8.533087 30.870655 11.680736 22.954973 33.072955 9.483459 -58.781435 3.034567 -0.074335 -92.130756 5.844073 -6.065150 -54.521816 4.767880 -2.457810 -54.281986 8.089549 -4.307573 -92.664409 5.841815 -6.119481 -54.917065 4.791100 -2.490749 -60.600885 12.017830 -13.684464 -92.799452 5.841158 -6.133206 -92.960654 5.840333 -6.149623 13.202032 10.273117 2.615325 53.371096 19.010880 -8.234533 -0.000014 62.095200 -0.000004 -9.895944 15.841951 35.082049 36.707175 -1.757892 -2.244087 73.882457 -4.472025 -3.363462 74.053426 -4.475857 -3.376800 4.768938 -0.435480 -7.104696 -5.999638 -22.067830 9.059794 -19.600444 -26.330352 5.855670 40.428995 3.672102 12.638676 73.936760 -4.473243 -3.367700 73.907341 -4.472575 -3.365400 49.892681 -8.296937 -3.365363 73.987738 -4.474373 -3.371678 74.176035 -4.478558 -3.386372 75.304580 -13.246160 -18.300530 74.212707 -4.479364 -3.389234 74.328871 -4.481927 -3.398324 5.120495 -11.575689 -51.017878 -0.089208 7.041931 49.217102 3.708164 -13.154892 -23.046040 0.000001 0.000002 -7.522940 -0.877064 5.889769 -62.736299 4.391649 4.419597 51.095128 -6.943888 5.712321 -1.880783 0.000001 -0.000012 -5.004410 
-0.043228 93.979400 15.510400 8.305351 7.494240 29.702605 1.734228 2.277869 11.243000 1.352411 1.904256 6.831000 1.258655 1.840574 6.775412 -0.771089 -1.785916 -10.441929 -6.251470 -8.653600 -18.350211 0.000000 0.000000 0.000000 0.000000 0.000000 0.000000 0.000000 0.000000 0.000000 -8.535491 -6.238375 1.820413 -52.494738 4.108297 -22.172286 -0.000012 -40.105600 0.000006 -5.892054 -6.936693 -20.699993 -49.846916 6.039248 -3.836323 -89.942825 5.848089 -5.842261 -52.543819 4.648284 -2.295444 -6.811599 -5.988180 6.634976 8.533087 30.870655 11.680736 22.954973 33.072955 9.483459 -57.273725 2.881280 0.003473 -89.396665 5.847768 -5.786615 -52.082163 4.619565 -2.258150 -53.064132 8.108216 -4.176786 -90.458214 5.847900 -5.894785 -52.928213 4.671962 -2.326675 -59.499537 12.163824 -13.453729 -90.802991 5.847521 -5.929906 -91.145017 5.846925 -5.964753 13.890764 9.490197 2.486755 54.732338 12.279832 -7.751749 0.000032 58.057500 0.000012 -6.538416 14.380481 37.913182 35.431313 -1.653445 -2.141252 72.267199 -4.433968 -3.238051 72.633203 -4.442900 -3.266356 4.768938 -0.435480 -7.104696 -5.999638 -22.067830 9.059794 -19.600444 -26.330352 5.855670 38.862358 3.908861 12.778327 72.116888 -4.430245 -3.226420 72.294701 -4.434648 -3.240161 48.806106 -8.389429 -3.269342 72.371973 -4.436549 -3.246147 72.914987 -4.449652 -3.288202 74.369051 -13.529065 -18.095556 72.950853 -4.450498 -3.290994 73.201006 -4.456401 -3.310419 3.623774 -13.062121 -46.683421 -0.576181 6.666342 48.743904 2.502439 -8.463037 -17.225733 0.000001 0.000000 -15.896600 -1.898956 4.721334 -59.368252 5.181756 6.660573 42.615884 -9.739388 4.223914 1.936993 -0.000001 0.000001 -3.624510 
